<svg width="30" height="26" viewBox="0 0 30 26" fill="none" xmlns="http://www.w3.org/2000/svg">
<path fill-rule="evenodd" clip-rule="evenodd" d="M5.03814 7.84139L5.8096 17.017C5.86589 17.7232 6.44289 18.2529 7.14782 18.2529H7.15294H21.1121H21.1147C21.7812 18.2529 22.3506 17.7565 22.4452 17.0976L23.6606 8.70624C23.6888 8.50666 23.6389 8.30708 23.5173 8.14588C23.3971 7.9834 23.2205 7.87849 23.0209 7.85035C22.7536 7.86058 11.6576 7.84523 5.03814 7.84139ZM7.1452 20.172C5.46028 20.172 4.03378 18.8568 3.89689 17.1744L2.72499 3.23696L0.796976 2.90432C0.273715 2.81221 -0.0755531 2.31709 0.0140028 1.79383C0.106117 1.27057 0.611468 0.930258 1.12322 1.01214L3.7843 1.47271C4.21289 1.54819 4.53913 1.90386 4.57623 2.33884L4.87688 5.92235C23.1412 5.93003 23.2 5.93899 23.2883 5.94922C24.0009 6.05285 24.6278 6.42515 25.0551 6.9983C25.4824 7.57018 25.6615 8.27511 25.5592 8.98133L24.345 17.3714C24.116 18.9681 22.7292 20.172 21.1172 20.172H21.1108H7.15544H7.1452Z" fill="white"/>
<path fill-rule="evenodd" clip-rule="evenodd" d="M19.0598 12.5704H15.5134C14.9825 12.5704 14.5539 12.1406 14.5539 11.6109C14.5539 11.0812 14.9825 10.6514 15.5134 10.6514H19.0598C19.5895 10.6514 20.0194 11.0812 20.0194 11.6109C20.0194 12.1406 19.5895 12.5704 19.0598 12.5704Z" fill="#48B84A"/>
<path fill-rule="evenodd" clip-rule="evenodd" d="M6.59484 23.6475C6.97993 23.6475 7.29082 23.9583 7.29082 24.3434C7.29082 24.7285 6.97993 25.0407 6.59484 25.0407C6.20847 25.0407 5.89758 24.7285 5.89758 24.3434C5.89758 23.9583 6.20847 23.6475 6.59484 23.6475Z" fill="white"/>
<mask id="mask0_19_47" style="mask-type:luminance" maskUnits="userSpaceOnUse" x="5" y="23" width="3" height="3">
<path fill-rule="evenodd" clip-rule="evenodd" d="M5.89691 24.3429C5.89691 24.7293 6.2078 25.0415 6.59545 25.0415C6.98054 25.0415 7.29142 24.7293 7.29142 24.3429C7.29142 23.9579 6.98054 23.647 6.59545 23.647C6.2078 23.647 5.89691 23.9579 5.89691 24.3429Z" fill="white"/>
</mask>
<g mask="url(#mask0_19_47)">
<path fill-rule="evenodd" clip-rule="evenodd" d="M-0.498718 31.4369H13.6882V17.25H-0.498718V31.4369Z" fill="white"/>
</g>
<path fill-rule="evenodd" clip-rule="evenodd" d="M6.59367 24.0807C6.4491 24.0807 6.3314 24.1984 6.3314 24.343C6.3314 24.6334 6.85722 24.6334 6.85722 24.343C6.85722 24.1984 6.73824 24.0807 6.59367 24.0807ZM6.59355 25.9998C5.68008 25.9998 4.93805 25.2565 4.93805 24.343C4.93805 23.4295 5.68008 22.6875 6.59355 22.6875C7.50702 22.6875 8.25033 23.4295 8.25033 24.343C8.25033 25.2565 7.50702 25.9998 6.59355 25.9998Z" fill="#48B84A"/>
<path fill-rule="evenodd" clip-rule="evenodd" d="M21.0265 23.647C21.4116 23.647 21.7237 23.9579 21.7237 24.3429C21.7237 24.728 21.4116 25.0402 21.0265 25.0402C20.6401 25.0402 20.3292 24.728 20.3292 24.3429C20.3292 23.9579 20.6401 23.647 21.0265 23.647Z" fill="white"/>
<mask id="mask1_19_47" style="mask-type:luminance" maskUnits="userSpaceOnUse" x="20" y="23" width="2" height="3">
<path fill-rule="evenodd" clip-rule="evenodd" d="M20.3295 24.3429C20.3295 24.7293 20.6404 25.0415 21.0268 25.0415C21.4106 25.0415 21.724 24.7293 21.724 24.3429C21.724 23.9579 21.4106 23.647 21.0268 23.647C20.6404 23.647 20.3295 23.9579 20.3295 24.3429Z" fill="white"/>
</mask>
<g mask="url(#mask1_19_47)">
<path fill-rule="evenodd" clip-rule="evenodd" d="M13.9327 31.4369H28.1209V17.25H13.9327V31.4369Z" fill="white"/>
</g>
<path fill-rule="evenodd" clip-rule="evenodd" d="M21.0253 24.0807C20.882 24.0807 20.7643 24.1984 20.7643 24.343C20.7656 24.6359 21.2901 24.6334 21.2888 24.343C21.2888 24.1984 21.1698 24.0807 21.0253 24.0807ZM21.0252 25.9998C20.1117 25.9998 19.3697 25.2565 19.3697 24.343C19.3697 23.4295 20.1117 22.6875 21.0252 22.6875C21.9399 22.6875 22.6833 23.4295 22.6833 24.343C22.6833 25.2565 21.9399 25.9998 21.0252 25.9998Z" fill="#48B84A"/>
<circle cx="24" cy="7" r="6" fill="#FF0033"/>
<path d="M22.3901 5.29V3.7H25.1601V11H23.3801V5.29H22.3901Z" fill="white"/>
</svg>
