<svg width="36" height="27" viewBox="0 0 36 27" fill="none" xmlns="http://www.w3.org/2000/svg">
<path d="M2.5032 0.834122C0.759206 1.25815 -0.335065 3.03634 0.102643 4.72562C0.239427 5.23856 0.492477 5.70363 0.834437 6.05926C1.1422 6.37387 15.7097 16.1197 16.2431 16.3591C17.057 16.7284 18.0213 16.7147 18.8557 16.3249C19.5054 16.0171 33.7788 6.46278 34.1413 6.09346C35.8443 4.35631 34.9141 1.40177 32.4794 0.827283C31.8365 0.676821 3.13241 0.68366 2.5032 0.834122Z" fill="white"/>
<path d="M0 16.0734C0 21.6132 0.0205176 24.1505 0.0752311 24.4036C0.328281 25.6072 1.29945 26.5921 2.53734 26.8862C3.18022 27.0366 31.7202 27.0366 32.4383 26.8862C33.683 26.6263 34.6884 25.6278 34.9414 24.4036C35.0303 23.9864 35.0509 8.08524 34.9619 8.12627C34.9346 8.13311 31.6313 10.3353 27.6167 13.0163C23.6021 15.6973 20.1004 18.0021 19.8268 18.132C19.0745 18.515 18.4316 18.6586 17.5083 18.6586C16.585 18.6586 15.9422 18.515 15.1898 18.132C14.9163 18.0021 11.4146 15.6973 7.40001 13.0163C3.3854 10.3353 0.0820703 8.13311 0.0547135 8.12627C0.0205176 8.1126 0 11.6895 0 16.0734Z" fill="white"/>
</svg>
