<svg width="22" height="20" viewBox="0 0 22 20" fill="none" xmlns="http://www.w3.org/2000/svg">
<path d="M21.9999 9.90002C21.9999 10.4537 21.6579 10.9114 21.2142 10.9838L21.0908 10.9938L2.90901 10.9938C2.40693 10.9938 1.99992 10.5041 1.99992 9.90002C1.99992 9.3463 2.34192 8.88868 2.78565 8.81626L2.90901 8.80627L21.0908 8.80627C21.5929 8.80627 21.9999 9.29596 21.9999 9.90002Z" fill="#626262"/>
<path d="M10.7923 17.9105C11.2203 18.3368 11.2218 19.0293 10.7956 19.4573C10.4081 19.8465 9.80057 19.8831 9.37171 19.5663L9.24881 19.4607L0.42589 10.6757C0.0355864 10.287 8.01086e-05 9.67728 0.319388 9.24843L0.425826 9.1256L9.24874 0.339138C9.67676 -0.0871126 10.3693 -0.0856788 10.7955 0.342341C11.183 0.731449 11.2171 1.33916 10.8985 1.76668L10.7923 1.88913L2.74812 9.90103L10.7923 17.9105Z" fill="#626262"/>
</svg>
