<svg width="506" height="1079" viewBox="0 0 506 1079" fill="none" xmlns="http://www.w3.org/2000/svg">
<path d="M15.7461 269.177C37.7347 325.338 75.4293 368.691 109.983 414.014C144.536 459.338 177.126 511.558 183.409 573.631C195.581 692.359 108.019 810.101 141.395 922.424C166.132 1005.19 243.485 1038.2 311.414 1061.35C354.213 1075.64 401.331 1089.92 442.167 1066.77C502.635 1032.28 518.341 935.725 523.446 852.961C532.477 699.256 530.121 544.565 515.985 391.353C503.028 254.89 472.794 102.663 377.772 34.678C323.193 -4.24093 256.049 -7.1968 194.796 10.0458C91.5281 39.6045 -47.0783 104.634 15.7461 269.177Z" fill="url(#paint0_linear_19_215)"/>
<defs>
<linearGradient id="paint0_linear_19_215" x1="549.132" y1="460.5" x2="-0.636149" y2="576.786" gradientUnits="userSpaceOnUse">
<stop stop-color="#48B84A" stop-opacity="0.6"/>
<stop offset="1" stop-color="#080C14" stop-opacity="0"/>
</linearGradient>
</defs>
</svg>
